<?xml version="1.0" encoding="UTF-8"?>
<svg xmlns="http://www.w3.org/2000/svg" xmlns:xlink="http://www.w3.org/1999/xlink" width="48.79pt" height="23.99pt" viewBox="0 0 48.79 23.99" version="1.1">
<defs>
<clipPath id="clip1">
  <path d="M 0 0 L 48.789062 0 L 48.789062 13 L 0 13 Z M 0 0 "/>
</clipPath>
<clipPath id="clip2">
  <path d="M 0 0 L 48.789062 0 L 48.789062 15 L 0 15 Z M 0 0 "/>
</clipPath>
<clipPath id="clip3">
  <path d="M 36 0 L 48.789062 0 L 48.789062 23.988281 L 36 23.988281 Z M 36 0 "/>
</clipPath>
<clipPath id="clip4">
  <path d="M 34 0 L 48.789062 0 L 48.789062 23.988281 L 34 23.988281 Z M 34 0 "/>
</clipPath>
<clipPath id="clip5">
  <path d="M 0 12 L 37 12 L 37 23.988281 L 0 23.988281 Z M 0 12 "/>
</clipPath>
<clipPath id="clip6">
  <path d="M 0 9 L 39 9 L 39 23.988281 L 0 23.988281 Z M 0 9 "/>
</clipPath>
<clipPath id="clip7">
  <path d="M 15 19 L 21 19 L 21 23.988281 L 15 23.988281 Z M 15 19 "/>
</clipPath>
<clipPath id="clip8">
  <path d="M 5 12 L 32 12 L 32 23.988281 L 5 23.988281 Z M 5 12 "/>
</clipPath>
</defs>
<g id="surface1">
<g clip-path="url(#clip1)" clip-rule="nonzero">
<path style=" stroke:none;fill-rule:nonzero;fill:rgb(3.292847%,48.298645%,73.153687%);fill-opacity:1;" d="M 0.566406 12.121094 L 14.992188 0.457031 L 48.304688 0.457031 L 36.363281 12.121094 L 0.566406 12.121094 "/>
</g>
<g clip-path="url(#clip2)" clip-rule="nonzero">
<path style="fill:none;stroke-width:4;stroke-linecap:butt;stroke-linejoin:miter;stroke:rgb(100%,100%,100%);stroke-opacity:1;stroke-miterlimit:4;" d="M 5.664062 118.689062 L 149.921875 235.329687 L 483.046875 235.329687 L 363.632812 118.689062 Z M 5.664062 118.689062 " transform="matrix(0.1,0,0,-0.1,0,23.99)"/>
</g>
<path style=" stroke:none;fill-rule:nonzero;fill:rgb(13.729858%,12.159729%,12.548828%);fill-opacity:1;" d="M 33.289062 6.621094 L 34.175781 5.730469 L 36.953125 6.992188 L 32.089844 8.390625 L 33.191406 6.9375 L 24.324219 6.9375 L 24.644531 6.621094 L 33.289062 6.621094 "/>
<path style=" stroke:none;fill-rule:nonzero;fill:rgb(13.729858%,12.159729%,12.548828%);fill-opacity:1;" d="M 27.964844 3.644531 L 27.648438 3.960938 L 18.605469 3.960938 L 17.238281 5.027344 L 14.910156 3.886719 L 20.246094 2.324219 L 18.925781 3.644531 L 27.964844 3.644531 "/>
<path style=" stroke:none;fill-rule:nonzero;fill:rgb(13.729858%,12.159729%,12.548828%);fill-opacity:1;" d="M 22.976562 8.675781 L 22.660156 8.992188 L 13.578125 8.992188 L 12.207031 10.011719 L 9.792969 8.875 L 15.261719 7.355469 L 14.027344 8.675781 L 22.976562 8.675781 "/>
<path style=" stroke:none;fill-rule:nonzero;fill:rgb(13.729858%,12.159729%,12.548828%);fill-opacity:1;" d="M 38.410156 2.417969 L 39.296875 1.53125 L 42.070312 2.75 L 37.207031 4.148438 L 38.265625 2.738281 L 29.355469 2.738281 L 29.675781 2.417969 L 38.410156 2.417969 "/>
<path style=" stroke:none;fill-rule:nonzero;fill:rgb(100%,100%,100%);fill-opacity:1;" d="M 33.335938 6.925781 L 34.222656 6.039062 L 36.648438 7.078125 L 31.78125 8.476562 L 33.015625 7.242188 L 24.105469 7.242188 L 24.425781 6.925781 L 33.335938 6.925781 "/>
<path style=" stroke:none;fill-rule:nonzero;fill:rgb(100%,100%,100%);fill-opacity:1;" d="M 27.660156 3.949219 L 27.34375 4.269531 L 18.433594 4.269531 L 17.542969 5.15625 L 15.128906 4.105469 L 19.984375 2.714844 L 18.75 3.949219 L 27.660156 3.949219 "/>
<g clip-path="url(#clip3)" clip-rule="nonzero">
<path style=" stroke:none;fill-rule:nonzero;fill:rgb(3.292847%,48.298645%,73.153687%);fill-opacity:1;" d="M 36.363281 23.503906 L 48.304688 11.472656 L 48.304688 0.476562 L 36.363281 12.121094 L 36.363281 23.503906 "/>
</g>
<g clip-path="url(#clip4)" clip-rule="nonzero">
<path style="fill:none;stroke-width:4;stroke-linecap:butt;stroke-linejoin:miter;stroke:rgb(100%,100%,100%);stroke-opacity:1;stroke-miterlimit:4;" d="M 363.632812 4.860937 L 483.046875 125.173437 L 483.046875 235.134375 L 363.632812 118.689062 Z M 363.632812 4.860937 " transform="matrix(0.1,0,0,-0.1,0,23.99)"/>
</g>
<path style=" stroke:none;fill-rule:nonzero;fill:rgb(100%,100%,100%);fill-opacity:1;" d="M 22.628906 8.980469 L 22.308594 9.300781 L 13.402344 9.300781 L 12.511719 10.1875 L 10.097656 9.136719 L 14.953125 7.746094 L 13.71875 8.980469 L 22.628906 8.980469 "/>
<path style=" stroke:none;fill-rule:nonzero;fill:rgb(100%,100%,100%);fill-opacity:1;" d="M 38.410156 2.726562 L 39.296875 1.835938 L 41.722656 2.878906 L 36.855469 4.277344 L 38.089844 3.042969 L 29.179688 3.042969 L 29.5 2.726562 L 38.410156 2.726562 "/>
<path style="fill:none;stroke-width:2.8;stroke-linecap:round;stroke-linejoin:round;stroke:rgb(13.729858%,12.159729%,12.548828%);stroke-opacity:1;stroke-miterlimit:4;" d="M 378.320312 208.923437 L 367.382812 197.985937 " transform="matrix(0.1,0,0,-0.1,0,23.99)"/>
<path style="fill:none;stroke-width:2.8;stroke-linecap:round;stroke-linejoin:round;stroke:rgb(13.729858%,12.159729%,12.548828%);stroke-opacity:1;stroke-miterlimit:4;" d="M 327.148438 166.501562 L 316.210938 155.564062 " transform="matrix(0.1,0,0,-0.1,0,23.99)"/>
<path style="fill:none;stroke-width:2.8;stroke-linecap:round;stroke-linejoin:round;stroke:rgb(13.729858%,12.159729%,12.548828%);stroke-opacity:1;stroke-miterlimit:4;" d="M 245.78125 172.165625 L 240.507812 167.790625 " transform="matrix(0.1,0,0,-0.1,0,23.99)"/>
<path style="fill:none;stroke-width:2.8;stroke-linecap:round;stroke-linejoin:round;stroke:rgb(13.729858%,12.159729%,12.548828%);stroke-opacity:1;stroke-miterlimit:4;" d="M 296.953125 214.626562 L 292.148438 210.251562 " transform="matrix(0.1,0,0,-0.1,0,23.99)"/>
<g clip-path="url(#clip5)" clip-rule="nonzero">
<path style=" stroke:none;fill-rule:nonzero;fill:rgb(3.292847%,48.298645%,73.153687%);fill-opacity:1;" d="M 36.363281 23.65625 L 36.363281 12.121094 L 0.613281 12.121094 L 0.613281 23.730469 L 36.363281 23.65625 "/>
</g>
<g clip-path="url(#clip6)" clip-rule="nonzero">
<path style="fill:none;stroke-width:4;stroke-linecap:butt;stroke-linejoin:miter;stroke:rgb(100%,100%,100%);stroke-opacity:1;stroke-miterlimit:4;" d="M 363.632812 3.3375 L 363.632812 118.689062 L 6.132812 118.689062 L 6.132812 2.595312 Z M 363.632812 3.3375 " transform="matrix(0.1,0,0,-0.1,0,23.99)"/>
</g>
<path style=" stroke:none;fill-rule:nonzero;fill:rgb(100%,100%,100%);fill-opacity:1;" d="M 13.832031 18.007812 L 7.148438 18.007812 L 7.148438 17.398438 L 4.628906 18.296875 L 7.148438 19.199219 L 7.148438 18.589844 L 13.832031 18.589844 L 13.832031 18.007812 "/>
<g clip-path="url(#clip7)" clip-rule="nonzero">
<path style=" stroke:none;fill-rule:nonzero;fill:rgb(100%,100%,100%);fill-opacity:1;" d="M 17.609375 19.929688 L 17.609375 22.296875 L 15.882812 22.296875 L 18.425781 23.191406 L 20.972656 22.296875 L 19.246094 22.296875 L 19.246094 19.929688 L 17.609375 19.929688 "/>
</g>
<path style=" stroke:none;fill-rule:nonzero;fill:rgb(100%,100%,100%);fill-opacity:1;" d="M 17.609375 16.738281 L 17.609375 14.371094 L 15.882812 14.371094 L 18.425781 13.476562 L 20.972656 14.371094 L 19.246094 14.371094 L 19.246094 16.738281 L 17.609375 16.738281 "/>
<path style=" stroke:none;fill-rule:nonzero;fill:rgb(100%,100%,100%);fill-opacity:1;" d="M 23.027344 18.589844 L 29.707031 18.589844 L 29.707031 19.199219 L 32.230469 18.296875 L 29.707031 17.398438 L 29.707031 18.007812 L 23.027344 18.007812 L 23.027344 18.589844 "/>
<g clip-path="url(#clip8)" clip-rule="nonzero">
<path style="fill:none;stroke-width:4;stroke-linecap:butt;stroke-linejoin:miter;stroke:rgb(100%,100%,100%);stroke-opacity:1;stroke-miterlimit:4;" d="M 291.796875 18.884375 C 279.257812 14.196875 221.601562 27.0875 163.125 47.7125 C 104.609375 68.298437 67.34375 88.845312 79.882812 93.532812 C 92.421875 98.220312 150.078125 85.329687 208.554688 64.704687 C 267.109375 44.079687 304.335938 23.571875 291.796875 18.884375 Z M 291.796875 18.884375 " transform="matrix(0.1,0,0,-0.1,0,23.99)"/>
<path style="fill:none;stroke-width:4;stroke-linecap:butt;stroke-linejoin:miter;stroke:rgb(100%,100%,100%);stroke-opacity:1;stroke-miterlimit:4;" d="M 288.476562 93.884375 C 301.71875 89.43125 265.3125 69.001562 207.148438 48.259375 C 149.023438 27.517187 91.132812 14.314062 77.890625 18.767187 C 64.648438 23.220312 101.054688 43.610937 159.21875 64.353125 C 217.34375 85.134375 275.195312 98.3375 288.476562 93.884375 Z M 288.476562 93.884375 " transform="matrix(0.1,0,0,-0.1,0,23.99)"/>
</g>
<path style=" stroke:none;fill-rule:nonzero;fill:rgb(74.978638%,74.523926%,74.636841%);fill-opacity:1;" d="M 21.167969 19.675781 C 23.378906 19.128906 23.910156 18.050781 22.367188 17.265625 C 20.820312 16.484375 17.78125 16.292969 15.574219 16.84375 C 13.367188 17.390625 12.832031 18.46875 14.378906 19.25 C 15.921875 20.035156 18.960938 20.222656 21.167969 19.675781 "/>
</g>
</svg>
